<svg width="109" height="32" viewBox="0 0 109 32" fill="none" xmlns="http://www.w3.org/2000/svg">
<path d="M4.04236 21.4658C4.50068 22.0468 4.9422 22.6418 5.42856 23.1991C5.53087 23.3153 5.79436 23.3265 5.98216 23.3265C8.54709 23.3348 11.1121 23.3321 13.6784 23.3321C17.1992 23.3321 20.7214 23.3335 24.2422 23.3307C24.7495 23.3307 25.1855 23.4315 25.4181 23.9481C25.6144 24.3821 25.5555 24.7489 25.1869 25.1227C24.1707 26.1518 23.034 27.0212 21.76 27.71C20.3233 28.4857 18.8012 29.0331 17.1936 29.2949C15.813 29.5203 14.4198 29.5441 13.0196 29.3761C11.7385 29.2221 10.5178 28.8861 9.31656 28.4381C8.84424 28.2617 8.58074 27.9424 8.49242 27.4678C8.43075 27.1346 8.69146 26.6362 9.08392 26.5004C9.36844 26.401 9.75107 26.3632 10.0202 26.4724C11.7427 27.1654 13.5242 27.4874 15.3743 27.3922C17.4094 27.2872 19.3142 26.7202 21.0788 25.6981C21.1474 25.6575 21.2162 25.6156 21.2834 25.5721C21.3185 25.5497 21.3507 25.5204 21.4586 25.4363C21.2456 25.4265 21.1138 25.4153 20.9821 25.4153C15.7583 25.4153 10.5346 25.4097 5.3108 25.4223C4.80063 25.4223 4.4278 25.2473 4.09422 24.8819C2.97434 23.6583 2.0577 22.3044 1.37792 20.791C1.04995 20.0615 1.49285 19.3139 2.31559 19.2397C2.43193 19.2299 2.54826 19.2355 2.66459 19.2355C10.4183 19.2355 18.1733 19.2355 25.9269 19.2355C26.5226 19.2355 26.5016 19.2285 26.7076 18.6391C27.1028 17.5135 27.264 16.3528 27.2949 15.1669C27.3243 14.0329 27.2374 12.9073 26.9473 11.8152C26.0208 8.33329 23.9717 5.68438 20.8531 3.89233C19.6295 3.1881 18.2896 2.75408 16.8866 2.52027C15.1486 2.23046 13.4247 2.28087 11.7189 2.70368C10.0426 3.1195 8.50362 3.84332 7.13567 4.90737C6.05087 5.75158 5.10755 6.72744 4.34791 7.87688C3.65972 8.91853 3.12992 10.0316 2.75849 11.2258C2.30578 12.6804 2.16002 14.1645 2.21748 15.678C2.22729 15.9566 2.25812 16.2436 2.21047 16.5152C2.11516 17.0528 1.5321 17.3049 1.19151 17.2852C0.67572 17.2544 0.197776 16.8078 0.187965 16.301C0.168343 15.2888 0.0982634 14.2653 0.206186 13.2643C0.406614 11.4064 0.964452 9.64515 1.85447 7.9833C2.79634 6.22481 4.04096 4.72676 5.58133 3.47931C6.99692 2.33267 8.58211 1.48843 10.3271 0.929814C11.9824 0.394994 13.6672 0.170985 15.3897 0.240988C16.9665 0.30399 18.4887 0.635803 19.9715 1.19722C21.8189 1.89585 23.4489 2.92629 24.8673 4.28014C26.381 5.72639 27.543 7.41905 28.3293 9.37494C29.1282 11.3602 29.487 13.4141 29.3917 15.5408C29.337 16.756 29.1688 17.9615 28.7427 19.1151C28.5409 19.6597 28.3685 20.2155 28.1498 20.7532C27.9928 21.141 27.6579 21.3202 27.2458 21.3496C27.1183 21.3594 26.9893 21.3524 26.8618 21.3524C19.4221 21.3524 11.9838 21.3524 4.54413 21.3524H4.12926C4.10122 21.3902 4.07179 21.428 4.04376 21.4658H4.04236Z" fill="#FFB401"/>
<path d="M4.24053 14.8271C4.2153 12.7536 4.79274 10.865 5.92948 9.12331C7.20632 7.166 8.93025 5.80655 11.1069 4.97492C12.8252 4.3183 14.5983 4.1181 16.3923 4.42891C19.4828 4.96372 21.93 6.5346 23.6568 9.1863C24.3155 10.1971 24.7724 11.2906 25.0542 12.4498C25.3667 13.7365 25.4172 15.0511 25.2266 16.3658C25.1481 16.9048 24.5552 17.3612 24.0843 17.28C23.469 17.1736 23.0989 16.671 23.1648 16.055C23.2952 14.8425 23.2756 13.63 22.8971 12.4652C22.0113 9.7463 20.2593 7.81144 17.5248 6.8818C14.5086 5.85697 11.7432 6.41277 9.28628 8.42607C8.1426 9.36271 7.33807 10.5542 6.81949 11.9416C6.41021 13.0378 6.2322 14.1691 6.28266 15.3339C6.29386 15.5971 6.37935 15.8576 6.39197 16.1207C6.42004 16.6906 6.11165 17.084 5.53281 17.2576C5.17821 17.364 4.68065 17.1526 4.45638 16.7326C4.33163 16.4974 4.27417 16.2118 4.24894 15.943C4.2153 15.5733 4.24053 15.1981 4.24053 14.8257V14.8271Z" fill="#FFB401"/>
<path d="M8.24556 14.8341C8.25256 12.104 10.1392 9.58247 12.676 8.73684C15.6881 7.733 18.8795 8.98187 20.4367 11.7036C21.1907 13.0196 21.408 14.4631 21.1655 15.9597C21.0786 16.4931 20.9595 17.028 20.3106 17.2184C19.7233 17.3906 19.0295 16.9594 19.0071 16.342C18.9986 16.0927 19.0757 15.8407 19.1108 15.5887C19.3644 13.7799 18.6104 12.0466 16.9986 11.0889C14.7294 9.74068 11.9556 10.6955 10.8483 12.8922C10.4489 13.6832 10.2541 14.5149 10.4209 15.4235C10.498 15.8435 10.669 16.2971 10.4097 16.7298C10.2148 17.0546 9.74805 17.3234 9.42851 17.28C8.95057 17.2156 8.52168 16.839 8.44597 16.3756C8.36191 15.8631 8.31002 15.3465 8.24414 14.8313L8.24556 14.8341Z" fill="#FFB401"/>
<path d="M42.3453 14.1857C38.9933 14.1857 36.4025 11.5948 36.4025 8.11331C36.4025 4.63176 38.9933 2.07327 42.3453 2.07327C45.7135 2.07327 48.3208 4.63176 48.3208 8.11331C48.3208 11.5948 45.7135 14.1857 42.3453 14.1857ZM42.3453 11.9834C44.4828 11.9834 45.7782 10.2508 45.7782 8.11331C45.7782 5.97581 44.4828 4.27553 42.3453 4.27553C40.224 4.27553 38.9286 5.97581 38.9286 8.11331C38.9286 10.2508 40.224 11.9834 42.3453 11.9834ZM52.0744 9.23062V13.9428H49.8239V5.29571H51.8966V6.52639C52.5279 5.66815 53.4184 5.13375 54.5521 5.13375C56.2847 5.13375 57.4828 6.26728 57.4828 8.35619V13.9428H55.2483V9.11725C55.2483 7.83802 54.7464 7.12552 53.726 7.12552C52.8355 7.12552 52.0744 7.83802 52.0744 9.23062ZM63.1793 14.0885C60.5887 14.0885 58.8556 12.2911 58.8556 9.58687C58.8556 7.01215 60.6531 5.13375 63.1468 5.13375C65.8837 5.13375 67.6972 7.35222 67.2922 10.1698H61.1551C61.3009 11.5786 61.9811 12.3559 63.1308 12.3559C64.1187 12.3559 64.7825 11.8701 65.0417 11.0119H67.2762C66.7903 12.9712 65.2844 14.0885 63.1793 14.0885ZM63.0984 6.78545C62.046 6.78545 61.3818 7.46559 61.1875 8.74481H64.9119C64.8474 7.54655 64.1672 6.78545 63.0984 6.78545ZM74.1439 14.1857C70.8725 14.1857 68.3144 11.53 68.3144 8.11331C68.3144 4.71277 70.8725 2.07327 74.1439 2.07327C77.204 2.07327 79.6008 4.1136 80.0058 7.09311H77.3987C77.1231 5.42522 75.828 4.27553 74.1759 4.27553C72.1846 4.27553 70.8401 5.84625 70.8401 8.11331C70.8401 10.3965 72.1846 11.9834 74.1759 11.9834C75.828 11.9834 77.1071 10.8175 77.3987 9.14966H80.0058C79.6008 12.1615 77.204 14.1857 74.1439 14.1857ZM83.7969 13.9428H81.5299V2.31617H83.7969V13.9428ZM88.4223 3.28776C88.4223 4.04883 87.8069 4.61558 86.9164 4.61558C86.0419 4.61558 85.4266 4.04883 85.4266 3.28776C85.4266 2.49429 86.0419 1.92754 86.9164 1.92754C87.8069 1.92754 88.4223 2.49429 88.4223 3.28776ZM88.0661 13.9428H85.8152V5.29571H88.0661V13.9428ZM93.7128 14.1047C91.2191 14.1047 89.5025 12.2587 89.5025 9.61923C89.5025 7.02838 91.2835 5.13375 93.7128 5.13375C95.9633 5.13375 97.6314 6.6559 97.9066 8.98774H95.5423C95.4294 7.83802 94.7327 7.12552 93.7128 7.12552C92.5466 7.12552 91.8019 8.0809 91.8019 9.61923C91.8019 11.1738 92.5306 12.113 93.7128 12.113C94.7491 12.113 95.4129 11.4329 95.5423 10.2508H97.9066C97.6474 12.6312 96.0282 14.1047 93.7128 14.1047ZM101.603 13.9428H99.3516V2.31617H101.603V8.95533L104.76 5.29571H107.351L103.773 9.44113L107.773 13.9428H104.906L101.603 9.92694V13.9428ZM46.0049 24.9603C46.0049 27.1788 44.2237 28.7333 41.3089 28.7333C38.378 28.7333 36.5482 27.1626 36.3701 24.7012H38.8638C38.9286 25.9805 39.7544 26.8063 41.2604 26.8063C42.5073 26.8063 43.3979 26.2558 43.3979 25.3166C43.3979 24.5879 42.8311 24.1507 41.8433 23.9563L39.9325 23.5839C38.1675 23.2438 36.8073 22.2884 36.8073 20.3615C36.8073 18.2888 38.6371 16.799 41.147 16.799C43.7541 16.799 45.6649 18.3211 45.8266 20.7501H43.3331C43.2521 19.5356 42.4101 18.7098 41.1794 18.7098C39.9811 18.7098 39.301 19.3899 39.301 20.1995C39.301 20.993 40.0297 21.3331 40.8717 21.495L42.8635 21.8998C44.9038 22.3046 46.0049 23.2438 46.0049 24.9603ZM53.065 26.3853V28.3447C52.5146 28.62 51.9962 28.7333 51.3324 28.7333C49.551 28.7333 48.4337 27.7131 48.4337 25.77V21.8512H46.6851V19.9243H48.4337V17.3657H50.6682V19.9243H53.1459V21.8512H50.6682V25.2518C50.6682 26.2558 51.1217 26.6606 51.9313 26.6606C52.3523 26.6606 52.7414 26.5634 53.065 26.3853ZM59.6698 28.5714V27.5026C59.1029 28.3123 58.2449 28.7333 57.0627 28.7333C55.2652 28.7333 54.0671 27.6808 54.0671 26.0614C54.0671 24.3774 55.4271 23.4706 57.9532 23.4706C58.4392 23.4706 58.8602 23.5029 59.3946 23.5677V23.0495C59.3946 22.0779 58.8438 21.5112 57.9048 21.5112C56.9329 21.5112 56.35 22.0779 56.2691 23.0495H54.2449C54.3747 21.0578 55.8156 19.7623 57.9048 19.7623C60.1718 19.7623 61.4998 21.0092 61.4998 23.1305V28.5714H59.6698ZM56.1882 25.9967C56.1882 26.7254 56.7066 27.1788 57.5487 27.1788C58.6984 27.1788 59.3946 26.5472 59.3946 25.5433V24.9279C58.8602 24.847 58.4876 24.8146 58.0991 24.8146C56.82 24.8146 56.1882 25.2194 56.1882 25.9967ZM70.9274 19.9243L66.7176 31.6966H64.2723L65.503 28.4742L62.1023 19.9243H64.5315L66.7011 25.8509L68.6769 19.9243H70.9274ZM78.9969 25.8024C78.9969 27.616 77.6204 28.7333 75.1592 28.7333C72.6979 28.7333 71.3215 27.5512 71.1432 25.6242H73.2968C73.3132 26.5149 74.0744 27.0816 75.1916 27.0816C76.0662 27.0816 76.7299 26.8063 76.7299 26.191C76.7299 25.6404 76.3738 25.4137 75.5477 25.2518L73.9935 24.9603C72.4387 24.685 71.4997 23.8268 71.4997 22.4828C71.4997 20.8797 72.8757 19.7623 75.0298 19.7623C77.1994 19.7623 78.6892 20.912 78.8511 22.7743H76.6975C76.6165 21.9322 75.9852 21.414 75.0298 21.414C74.2038 21.414 73.6533 21.7217 73.6533 22.2723C73.6533 22.7904 74.0095 23.0009 74.7866 23.1467L76.4547 23.4543C78.1388 23.7782 78.9969 24.5555 78.9969 25.8024Z" fill="white"/>
</svg>
